<svg id="Layer_1" data-name="Layer 1" xmlns="http://www.w3.org/2000/svg" viewBox="0 0 1500 1500"><defs><style>.cls-1{fill:#fff;}</style></defs><path class="cls-1" d="M1288.61,668a80.83,80.83,0,0,0-56.74,17.33s-2.58,2.13-2.66,2.21c-9.94,8-45.82,35.09-75.89,35.09-76.74,0-104.16-103.09-114.41-131.33C974.06,412.63,802.76,285,601.67,285c-254.29,0-465.38,211.41-465,465.69C137,1007.18,345.06,1215,601.66,1215c203,0,375.66-130.11,439.08-311.49,6.59-18.86,38.45-128,113.08-128,29.77,0,65.23,26.57,75.59,34.88.18.14,1.42,1.18,1.86,1.52s.64.52.82.68A81.09,81.09,0,1,0,1288.61,668ZM601.84,1083.94c-184.44,0-334-149.5-334-334s149.51-333.93,334-333.93S935.78,565.56,935.78,750,786.27,1083.94,601.84,1083.94Z"/></svg>